<svg width="80" height="80" viewBox="0 0 80 80" fill="none" xmlns="http://www.w3.org/2000/svg">
<path d="M39.0254 77.7003C38.6429 77.7053 38.2632 77.6346 37.9082 77.4922C37.5532 77.3498 37.2299 77.1385 36.9568 76.8706C36.5416 76.4666 36.2633 75.9428 36.1608 75.3726C36.0583 74.8024 36.1369 74.2145 36.3854 73.6912C38.3277 69.468 38.9111 64.7461 38.0552 60.1771C37.1993 55.6082 34.9463 51.4176 31.6071 48.1838C27.1535 43.87 21.1925 41.4644 14.9923 41.4786C11.6554 41.475 8.35351 42.1577 5.2917 43.4843C4.75142 43.7261 4.15166 43.8026 3.56798 43.7042C2.9843 43.6058 2.44281 43.3368 2.0117 42.9312C1.59648 42.5272 1.31811 42.0034 1.21564 41.4332C1.11316 40.863 1.19171 40.2751 1.44028 39.7518C2.91969 36.6064 4.94843 33.7502 7.43113 31.3175C12.9893 25.9207 20.4417 22.918 28.1888 22.9541H29.4723C34.173 14.8901 41.4634 8.65336 50.158 5.25806C55.158 3.30247 60.4783 2.29483 65.8471 2.28663C69.1122 2.27055 72.3677 2.64152 75.5454 3.39178C76.0607 3.50195 76.5347 3.7549 76.913 4.12171C77.2913 4.48853 77.5588 4.9544 77.6848 5.46606C79.3244 12.2122 79.1589 19.2711 77.2051 25.9329C75.2513 32.5948 71.578 38.6249 66.5546 43.4169C63.8368 46.0635 60.7648 48.3201 57.4266 50.1221C57.6423 55.8745 56.1084 61.5571 53.0273 66.4196C49.9463 71.2821 45.463 75.0959 40.1694 77.3575C39.8375 77.5963 39.4351 77.7171 39.0266 77.7003H39.0254ZM14.8483 35.8112C22.5963 35.7633 30.0516 38.7678 35.6014 44.1746C39.8598 48.2886 42.727 53.6298 43.8026 59.4523C44.3478 62.3949 44.3961 65.4081 43.9454 68.3666C44.23 68.1586 44.4448 67.8821 44.7294 67.6809C47.2236 65.2879 49.1324 62.352 50.3074 59.1013C51.4824 55.8506 51.892 52.3728 51.5043 48.9381C51.434 48.3518 51.5561 47.7586 51.8521 47.2476C52.148 46.7367 52.6019 46.3357 53.1454 46.1049C56.5997 44.4454 59.7561 42.2266 62.4871 39.5381C66.5866 35.6242 69.6413 30.7464 71.3726 25.3495C73.1039 19.9525 73.4568 14.2081 72.3991 8.63978C70.2347 8.24684 68.0377 8.06161 65.838 8.08663C56.3959 8.03527 47.3089 11.6826 40.5226 18.2478C37.8081 20.8962 35.5224 23.9511 33.7477 27.3026C33.4666 27.8181 33.0382 28.2381 32.5173 28.509C31.9964 28.78 31.4066 28.8895 30.8231 28.8238C29.9671 28.7552 29.0403 28.6855 28.1946 28.6855C21.9877 28.6381 16.0142 31.0487 11.5786 35.3906C11.3238 35.6259 11.0869 35.88 10.87 36.1506C12.1849 35.8932 13.5236 35.7783 14.8631 35.8078H14.8528L14.8483 35.8112ZM10.9271 73.6181C10.0217 73.6183 9.11694 73.5721 8.21628 73.4798C7.59956 73.388 7.02712 73.1052 6.57941 72.6712C6.13171 72.2373 5.83125 71.6739 5.72028 71.0603C5.64942 70.6455 4.22313 60.2032 11.5683 53.0181C15.062 49.6318 17.9866 48.1038 20.91 48.1038C24.4048 48.1038 26.8288 50.4535 28.11 51.6981C29.3911 52.9426 31.6757 55.1541 31.8186 58.4032C31.9614 61.3061 30.3214 64.2786 26.7523 67.8043C21.5477 72.8501 14.63 73.6112 10.9203 73.6112L10.9271 73.6181ZM20.9111 53.7815C20.2026 53.7815 18.6254 54.1963 15.7054 57.0306C13.4092 59.3381 11.9746 62.3638 11.6414 65.6021C11.5086 66.3789 11.4372 67.1649 11.4277 67.9529C14.2848 67.8832 19.1271 67.1918 22.6951 63.8055C25.6906 60.9026 26.1237 59.3129 26.0471 58.6901C25.7079 57.5347 25.0098 56.5172 24.054 55.7849C22.5568 54.2638 21.7008 53.7803 20.9134 53.7803L20.9111 53.7815ZM57.7797 30.2809C56.097 30.2277 54.4672 29.6802 53.0937 28.7066C51.7202 27.733 50.6639 26.3765 50.0565 24.8063C49.449 23.2361 49.3175 21.5219 49.6782 19.8774C50.0388 18.233 50.8758 16.7311 52.0846 15.5593C53.2935 14.3875 54.8206 13.5977 56.4755 13.2883C58.1304 12.9789 59.8397 13.1638 61.3902 13.8197C62.9407 14.4757 64.2637 15.5737 65.1941 16.9768C66.1245 18.3799 66.6211 20.0259 66.622 21.7095C66.5859 24.0182 65.6344 26.2181 63.9767 27.8255C62.319 29.4328 60.0908 30.316 57.782 30.2809H57.7797ZM57.7797 18.8763C57.0168 18.8687 56.2818 19.1627 55.7347 19.6944C55.1876 20.2261 54.8727 20.9524 54.8586 21.7152C54.8857 22.4737 55.2051 23.1922 55.75 23.7205C56.2949 24.2488 57.0231 24.5458 57.782 24.5495C58.5445 24.5575 59.2794 24.2643 59.827 23.7336C60.3746 23.2029 60.6907 22.4776 60.7066 21.7152C60.7029 20.9607 60.4 20.2384 59.8643 19.707C59.3286 19.1756 58.604 18.8785 57.8494 18.8809H57.7854L57.7797 18.8763Z" fill="#CCCCCC"/>
</svg>
